<svg width="13" height="8" viewBox="0 0 13 8" fill="none" xmlns="http://www.w3.org/2000/svg">
<path d="M6.51744 7.39754C6.41269 7.39804 6.3089 7.37761 6.21215 7.33745C6.11541 7.29729 6.02766 7.23821 5.95405 7.16368L0.639066 1.8487C0.533058 1.69361 0.485221 1.50607 0.503991 1.31915C0.522761 1.13224 0.606932 0.957953 0.741659 0.827039C0.876386 0.696124 1.05301 0.61699 1.24039 0.603593C1.42777 0.590196 1.61386 0.643397 1.76584 0.753812L6.51744 5.47352L11.269 0.753812C11.4189 0.656664 11.597 0.612634 11.7748 0.628778C11.9527 0.644922 12.1199 0.720307 12.2498 0.842848C12.3797 0.96539 12.4647 1.12799 12.4912 1.30459C12.5177 1.4812 12.4841 1.66157 12.3958 1.81681L7.08083 7.13179C7.00996 7.21211 6.92344 7.27711 6.82656 7.32281C6.72968 7.36851 6.62449 7.39394 6.51744 7.39754Z" fill="#171717"/>
</svg>
