<svg width="21" height="20" viewBox="0 0 21 20" fill="none" xmlns="http://www.w3.org/2000/svg">
<path d="M20.1464 14.678L17.3554 11.8869C16.3586 10.8901 14.664 11.2889 14.2653 12.5847C13.9662 13.4819 12.9694 13.9803 12.0723 13.7809C10.0787 13.2825 7.38732 10.6908 6.88891 8.59746C6.58987 7.7003 7.18795 6.70349 8.08508 6.40448C9.38093 6.00576 9.77965 4.31119 8.78285 3.31438L5.99179 0.523324C5.19434 -0.174441 3.99817 -0.174441 3.30041 0.523324L1.40647 2.41726C-0.487459 4.41087 1.60584 9.69395 6.29083 14.3789C10.9758 19.0639 16.2589 21.2569 18.2525 19.2633L20.1464 17.3694C20.8442 16.5719 20.8442 15.3757 20.1464 14.678Z" fill="white"/>
</svg>
